# xmcd
# 
# Track frame offsets:
#     150
#     13201
#     26963
#     40012
#     51893
#     64493
#     76209
#     88785
#     100994
#     114302
#     128477
#     139483
#     150880
#     163419
#     176129
#     187715
#     200660
#     213655
#     223881
#     235915
#     248488
#     260370
#     273068
#     288496
#     301717
# 
# Disc length: 4184
# 
# Revision: 0
# Processed by: cddbd v1.5.2PL0 Copyright (c) Steve Scherf et al.
# Submitted via: fre:ac v1.0.17
# 
DISCID=67105619
DTITLE=Various Artist - 101 - Country Number Ones [CD1]
DYEAR=2016
DGENRE=Country
TTITLE0=Hank Williams - Jambalaya
TTITLE1=Tennessee Ernie Ford - Mule Train
TTITLE2=Eddy Arnold - Take Me In Your Arms And Hold Me
TTITLE3=Hank Williams and His Drifting Cowboys - Long Gone, Lonesome Blues
TTITLE4=Red Foley - Chattanoogie Shoe Shine Boy
TTITLE5=Eddy Arnold - Easy On The Eyes
TTITLE6=Hank Snow - The Rhumba Boogie
TTITLE7=Hank Williams - Your Cheatin' Heart
TTITLE8=Lefty Frizzell - If You've Got The Money (I've Got The Time)
TTITLE9=Pee Wee King - Slow Poke
TTITLE10=The Carlisles - No Help Wanted
TTITLE11=Red Sovine and Webb Pierce - Why, Baby, Why ?
TTITLE12=Webb Pierce - Back Street Affair
TTITLE13=Bob Wills and His Texas Playboys - Stars And Stripes On Iwo Jima
TTITLE14=Eddy Arnold - Bouquet Of Roses
TTITLE15=Jimmy Wakely and Mary Ford - One Has My Name The Other Has My Heart
TTITLE16=Ernest Tubb - Slippin' Around
TTITLE17=Bob Wills and His Texas Playboys - Sugar Moon
TTITLE18=Red Foley - Tennessee Saturday Night
TTITLE19=Jack Guthrie - Oklahoma Hills
TTITLE20=Eddy Arnold - I'm Throwing Rice (At The Girl I Love)
TTITLE21=Tex Ritter - I'm Wastin' My Tears On You
TTITLE22=Red Foley - At Mail Call Today
TTITLE23=Al Dexter - So Long, Pal
TTITLE24=Louis Jordan - Is You Is Or Is You Aint My Baby
EXTD=
EXTT0=
EXTT1=
EXTT2=
EXTT3=
EXTT4=
EXTT5=
EXTT6=
EXTT7=
EXTT8=
EXTT9=
EXTT10=
EXTT11=
EXTT12=
EXTT13=
EXTT14=
EXTT15=
EXTT16=
EXTT17=
EXTT18=
EXTT19=
EXTT20=
EXTT21=
EXTT22=
EXTT23=
EXTT24=
PLAYORDER=
